<?xml version="1.0" standalone="no"?><!DOCTYPE svg PUBLIC "-//W3C//DTD SVG 1.1//EN" "http://www.w3.org/Graphics/SVG/1.1/DTD/svg11.dtd"><svg t="1602381956984" class="icon" viewBox="0 0 1024 1024" version="1.1" xmlns="http://www.w3.org/2000/svg" p-id="29988" xmlns:xlink="http://www.w3.org/1999/xlink" width="200" height="200"><defs><style type="text/css"></style></defs><path d="M620.0832 515.9936c65.28-36.9152 109.4656-106.9056 109.4656-187.0848 0-118.4768-96.3584-214.8352-214.8352-214.8352S299.8784 210.432 299.8784 328.9088c0 79.4624 43.3664 148.8896 107.6736 186.0608-157.2864 41.6256-273.6128 185.088-273.6128 355.328 0 22.4768 18.2784 40.7552 40.7552 40.7552h674.6624c22.4768 0 40.7552-18.2784 40.7552-40.7552 0-168.9088-114.5856-311.4496-270.0288-354.304zM340.8384 328.9088c0-95.8976 78.0288-173.8752 173.8752-173.8752s173.8752 78.0288 173.8752 173.8752-78.0288 173.8752-173.8752 173.8752-173.8752-78.0288-173.8752-173.8752zM174.848 870.2976c0-180.0704 146.4832-326.5536 326.5536-326.5536h21.1456c180.0704 0 326.5536 146.4832 326.7584 326.4l-674.4576 0.1536z" fill="#888888" p-id="29989"></path></svg>