<?xml version="1.0" standalone="no"?><!DOCTYPE svg PUBLIC "-//W3C//DTD SVG 1.1//EN" "http://www.w3.org/Graphics/SVG/1.1/DTD/svg11.dtd"><svg t="1602385245540" class="icon" viewBox="0 0 1024 1024" version="1.1" xmlns="http://www.w3.org/2000/svg" p-id="40764" xmlns:xlink="http://www.w3.org/1999/xlink" width="200" height="200"><defs><style type="text/css"></style></defs><path d="M477.4912 858.624c-45.568 0-82.6368-37.0688-82.6368-82.6368s37.0688-82.6368 82.6368-82.6368 82.6368 37.0688 82.6368 82.6368-37.0688 82.6368-82.6368 82.6368z m0-124.2624c-22.9888 0-41.6768 18.688-41.6768 41.6768s18.688 41.6768 41.6768 41.6768 41.6768-18.688 41.6768-41.6768-18.688-41.6768-41.6768-41.6768zM772.7104 858.624c-45.568 0-82.6368-37.0688-82.6368-82.6368s37.0688-82.6368 82.6368-82.6368 82.6368 37.0688 82.6368 82.6368-37.0688 82.6368-82.6368 82.6368z m0-124.2624c-22.9888 0-41.6768 18.688-41.6768 41.6768s18.688 41.6768 41.6768 41.6768 41.6768-18.688 41.6768-41.6768-18.688-41.6768-41.6768-41.6768zM411.6992 643.072c-15.4624 0-29.1328-9.7792-34.0992-24.32L245.248 246.8864l-96.3072-45.7216c-10.24-4.864-14.592-17.0496-9.728-27.2896 4.864-10.24 17.0496-14.592 27.2896-9.728l95.5392 45.3632c9.8816 3.7888 17.7664 11.8784 21.1968 21.9648l131.8912 370.6368 391.2704-1.024 71.9872-254.6688-306.3296-66.048c-0.2048-0.0512-0.4096-0.1024-0.512-0.1024l-0.512 0.1536-77.1584 21.8624a20.49024 20.49024 0 0 1-11.1616-39.424l76.7488-21.76c7.1168-2.304 14.8992-2.4064 22.6816-0.4608l311.8592 67.2256c9.4208 2.56 17.2544 8.6528 22.016 17.152 4.7616 8.5504 5.888 18.3808 3.1232 27.7504l-74.3936 263.1168c-4.5056 15.4112-18.7392 26.0608-34.6112 26.0608l-398.4384 1.1264z m4.5056-37.9392l0.0512 0.1024s0-0.0512-0.0512-0.1024z m393.8816-4.0448z m69.6832-259.584v0.0512-0.0512zM247.6032 247.8592z m-3.0208-2.8672c0 0.0512 0 0.0512 0.0512 0.1024l-0.0512-0.1024z" fill="#d81e06" p-id="40765"></path></svg>